<svg width="10" height="7" viewBox="0 0 10 7" fill="none" xmlns="http://www.w3.org/2000/svg">
<g id="evaArrowUpFill0">
<g id="evaArrowUpFill1">
<path id="evaArrowUpFill2" d="M1.75191 1.43051e-06H8.36153C8.62247 -0.000376225 8.87818 0.0731511 9.09907 0.212073C9.31996 0.350996 9.49698 0.549633 9.60966 0.784991C9.74157 1.06425 9.79237 1.37494 9.75629 1.68166C9.7202 1.98838 9.59868 2.2788 9.40557 2.51982L6.10076 6.52327C5.97106 6.67291 5.81072 6.79293 5.63059 6.87518C5.45045 6.95743 5.25474 7 5.05672 7C4.8587 7 4.66299 6.95743 4.48286 6.87518C4.30272 6.79293 4.14238 6.67291 4.01268 6.52327L0.707874 2.51982C0.514762 2.2788 0.393239 1.98838 0.357154 1.68166C0.321069 1.37494 0.371874 1.06425 0.503778 0.784991C0.616457 0.549633 0.793485 0.350996 1.01437 0.212073C1.23526 0.0731511 1.49097 -0.000376225 1.75191 1.43051e-06Z" fill="#BB0B0B"/>
</g>
</g>
</svg>
