<svg width="14" height="14" viewBox="0 0 14 14" fill="none" xmlns="http://www.w3.org/2000/svg">
<path d="M11.7188 0.8125C12.4805 0.8125 13.125 1.45703 13.125 2.21875V12.5312C13.125 13.3223 12.4805 13.9375 11.7188 13.9375H7.67578V9.48438H9.375L9.69727 7.375H7.67578V6.02734C7.67578 5.44141 7.96875 4.88477 8.87695 4.88477H9.78516V3.09766C9.78516 3.09766 8.96484 2.95117 8.14453 2.95117C6.50391 2.95117 5.41992 3.97656 5.41992 5.79297V7.375H3.57422V9.48438H5.41992V13.9375H1.40625C0.615234 13.9375 0 13.3223 0 12.5312V2.21875C0 1.45703 0.615234 0.8125 1.40625 0.8125H11.7188Z" fill="#191919"/>
</svg>
