<svg width="16" height="13" viewBox="0 0 16 13" fill="none" xmlns="http://www.w3.org/2000/svg">
<path d="M13.8707 0.365967H2.31766C1.83512 0.37177 1.3746 0.568764 1.03714 0.913721C0.69968 1.25868 0.512866 1.72342 0.517668 2.20597V10.784C0.512866 11.2665 0.69968 11.7313 1.03714 12.0762C1.3746 12.4212 1.83512 12.6182 2.31766 12.624H13.8697C14.3522 12.6182 14.8127 12.4212 15.1502 12.0762C15.4876 11.7313 15.6745 11.2665 15.6697 10.784V2.20597C15.6745 1.72359 15.4878 1.259 15.1505 0.914072C14.8133 0.569143 14.353 0.372032 13.8707 0.365967ZM13.8707 11H2.31766C2.2533 11.005 2.18942 10.9856 2.13879 10.9455C2.08817 10.9055 2.05457 10.8478 2.04468 10.784V3.34097L7.26965 8.04097C7.37419 8.13755 7.51133 8.19112 7.65365 8.19097H8.53665C8.67863 8.19087 8.81539 8.13731 8.91968 8.04097L14.1447 3.34097V10.785C14.1345 10.8488 14.1007 10.9064 14.0499 10.9462C13.999 10.9861 13.935 11.0053 13.8707 11ZM8.09466 6.57697L3.01266 1.99097H13.1757L8.09466 6.57697Z" fill="#BB0B0B"/>
</svg>
