<svg width="13" height="13" viewBox="0 0 13 13" fill="none" xmlns="http://www.w3.org/2000/svg">
<path d="M7.51953 1.61426L6.96094 1.05566C6.70703 0.827148 6.32617 0.827148 6.09766 1.05566L1.14648 5.98145C0.917969 6.23535 0.917969 6.61621 1.14648 6.84473L6.09766 11.7959C6.32617 12.0244 6.70703 12.0244 6.96094 11.7959L7.51953 11.2373C7.74805 10.9834 7.74805 10.6025 7.51953 10.3486L4.44727 7.42871H11.7344C12.0898 7.42871 12.3438 7.1748 12.3438 6.81934V6.00684C12.3438 5.67676 12.0898 5.39746 11.7344 5.39746H4.44727L7.51953 2.50293C7.74805 2.24902 7.77344 1.86816 7.51953 1.61426Z" fill="#1E1840"/>
</svg>
