<svg width="16" height="15" viewBox="0 0 16 15" fill="none" xmlns="http://www.w3.org/2000/svg">
<path d="M11.1309 3.04688C11.0215 2.9375 10.8574 2.9375 10.748 3.04688L4.78711 9.00781L4.51367 11.5508C4.45898 11.8789 4.75977 12.1797 5.08789 12.125L7.63086 11.8516L13.5918 5.89062C13.7012 5.78125 13.7012 5.61719 13.5918 5.50781L11.1309 3.04688ZM15.5605 2.41797L14.2207 1.07812C13.8105 0.667969 13.127 0.667969 12.7168 1.07812L11.7598 2.03516C11.6504 2.14453 11.6504 2.30859 11.7598 2.41797L14.2207 4.87891C14.3301 4.98828 14.4941 4.98828 14.6035 4.87891L15.5605 3.92188C15.9707 3.51172 15.9707 2.82812 15.5605 2.41797ZM10.6387 10.2383V13H1.88867V4.25H8.15039C8.25977 4.25 8.3418 4.22266 8.39648 4.16797L9.49023 3.07422C9.68164 2.85547 9.54492 2.5 9.24414 2.5H1.45117C0.712891 2.5 0.138672 3.10156 0.138672 3.8125V13.4375C0.138672 14.1758 0.712891 14.75 1.45117 14.75H11.0762C11.7871 14.75 12.3887 14.1758 12.3887 13.4375V9.14453C12.3887 8.84375 12.0332 8.70703 11.8145 8.89844L10.7207 9.99219C10.666 10.0469 10.6387 10.1289 10.6387 10.2383Z" fill="#BB0B0B"/>
</svg>
