<svg width="14" height="15" viewBox="0 0 14 15" fill="none" xmlns="http://www.w3.org/2000/svg">
<path d="M7 7.75C8.91406 7.75 10.5 6.19141 10.5 4.25C10.5 2.33594 8.91406 0.75 7 0.75C5.05859 0.75 3.5 2.33594 3.5 4.25C3.5 6.19141 5.05859 7.75 7 7.75ZM9.43359 8.625H8.96875C8.36719 8.92578 7.71094 9.0625 7 9.0625C6.28906 9.0625 5.60547 8.92578 5.00391 8.625H4.53906C2.51562 8.625 0.875 10.293 0.875 12.3164V13.4375C0.875 14.1758 1.44922 14.75 2.1875 14.75H11.8125C12.5234 14.75 13.125 14.1758 13.125 13.4375V12.3164C13.125 10.293 11.457 8.625 9.43359 8.625Z" fill="#BB0B0B"/>
</svg>
