<svg width="15" height="15" viewBox="0 0 15 15" fill="none" xmlns="http://www.w3.org/2000/svg">
<path d="M14.4785 1.02637L11.6348 0.370117C11.334 0.288086 11.0059 0.452148 10.8691 0.75293L9.55664 3.81543C9.44727 4.08887 9.5293 4.38965 9.74805 4.58105L11.416 5.94824C10.4316 8.02637 8.70898 9.77637 6.57617 10.7881L5.20898 9.12012C5.01758 8.90137 4.7168 8.81934 4.44336 8.92871L1.38086 10.2412C1.08008 10.3779 0.943359 10.7061 0.998047 11.0068L1.6543 13.8506C1.73633 14.1514 1.98242 14.3428 2.31055 14.3428C9.31055 14.3428 14.998 8.68262 14.998 1.65527C14.998 1.35449 14.7793 1.1084 14.4785 1.02637Z" fill="#BB0B0B"/>
</svg>
