<svg width="14" height="14" viewBox="0 0 14 14" fill="none" xmlns="http://www.w3.org/2000/svg">
<path d="M9.35515 13.7261C8.50722 13.6571 7.68169 13.4191 6.92718 13.0261C5.24122 12.2099 3.7474 11.0456 2.54418 9.61007C1.63059 8.56168 0.90672 7.36206 0.405141 6.06507C0.141493 5.44093 0.0199367 4.76598 0.0491841 4.08907C0.0710001 3.67438 0.252288 3.28417 0.555166 3.00007C0.894166 2.68107 1.21515 2.34607 1.54815 2.01807C1.63682 1.91777 1.74579 1.83745 1.86785 1.78244C1.98991 1.72743 2.12227 1.69898 2.25615 1.69898C2.39004 1.69898 2.5224 1.72743 2.64446 1.78244C2.76652 1.83745 2.87549 1.91777 2.96416 2.01807C3.23416 2.28307 3.49915 2.55007 3.76415 2.81807L4.54119 3.59207C4.64779 3.67979 4.73359 3.79002 4.79253 3.91485C4.85147 4.03969 4.88207 4.17602 4.88207 4.31407C4.88207 4.45212 4.85147 4.58846 4.79253 4.71329C4.73359 4.83812 4.64779 4.94836 4.54119 5.03607C4.21519 5.36407 3.89318 5.69107 3.56218 6.00907C3.5241 6.03879 3.49801 6.08128 3.48882 6.12871C3.47963 6.17613 3.48791 6.22528 3.51214 6.26707C3.73866 6.77932 4.03738 7.25649 4.39916 7.68407C5.09629 8.56154 5.93276 9.31861 6.87517 9.92507C7.08017 10.0551 7.30818 10.1461 7.52318 10.2631C7.5442 10.2779 7.5679 10.2884 7.59301 10.294C7.61812 10.2995 7.64411 10.3001 7.66942 10.2955C7.69473 10.2909 7.71888 10.2814 7.74047 10.2674C7.76206 10.2534 7.78064 10.2353 7.79516 10.2141C8.12116 9.88207 8.45216 9.55407 8.78216 9.22807C8.86993 9.12631 8.97864 9.04467 9.10082 8.98871C9.223 8.93275 9.35578 8.90378 9.49016 8.90378C9.62455 8.90378 9.75733 8.93275 9.87951 8.98871C10.0017 9.04467 10.1104 9.12631 10.1982 9.22807C10.7315 9.75341 11.2618 10.2801 11.7892 10.8081C11.893 10.8969 11.9763 11.0072 12.0332 11.1314C12.0901 11.2555 12.1194 11.3906 12.1189 11.5272C12.1184 11.6638 12.0882 11.7987 12.0304 11.9225C11.9726 12.0463 11.8886 12.156 11.7842 12.2441C11.4842 12.5441 11.1641 12.8321 10.8841 13.1441C10.7138 13.3362 10.5029 13.4882 10.2667 13.589C10.0304 13.6898 9.77482 13.737 9.51818 13.7271C9.46418 13.7311 9.41015 13.7301 9.35515 13.7261ZM8.67919 5.11507C8.13166 4.56829 7.42066 4.21508 6.65416 4.10907L6.79918 3.08207C7.76404 3.21574 8.66154 3.65223 9.36242 4.32867C10.0633 5.00511 10.5313 5.88657 10.6991 6.84607L9.67217 7.02207C9.54824 6.29858 9.20142 5.63187 8.68017 5.11507H8.67919ZM10.5392 3.31507C9.52607 2.30282 8.20996 1.64933 6.79119 1.45407L6.93517 0.424072C8.5356 0.646803 10.0241 1.37149 11.1866 2.49386C12.349 3.61624 13.1254 5.07843 13.4042 6.67007L12.3782 6.84507C12.1497 5.5043 11.5069 4.26878 10.5402 3.31207L10.5392 3.31507Z" fill="#BB0B0B"/>
</svg>
