<svg width="15" height="15" viewBox="0 0 15 15" fill="none" xmlns="http://www.w3.org/2000/svg">
<path d="M14.5312 7.375C14.5312 11.3887 11.2793 14.6406 7.26562 14.6406C6.50391 14.6406 5.77148 14.5527 5.09766 14.3184C5.39062 13.8496 5.83008 13.0586 6.00586 12.4141C6.09375 12.0918 6.44531 10.6855 6.44531 10.6855C6.67969 11.1543 7.38281 11.5352 8.11523 11.5352C10.3125 11.5352 11.8945 9.51367 11.8945 7.02344C11.8945 4.62109 9.93164 2.80469 7.41211 2.80469C4.27734 2.80469 2.60742 4.91406 2.60742 7.19922C2.60742 8.2832 3.16406 9.60156 4.07227 10.041C4.21875 10.0996 4.30664 10.0703 4.33594 9.92383C4.33594 9.83594 4.48242 9.33789 4.54102 9.10352C4.54102 9.04492 4.54102 8.95703 4.48242 8.89844C4.18945 8.54688 3.95508 7.87305 3.95508 7.22852C3.95508 5.64648 5.15625 4.09375 7.23633 4.09375C8.99414 4.09375 10.2539 5.29492 10.2539 7.05273C10.2539 9.01562 9.25781 10.3633 7.96875 10.3633C7.26562 10.3633 6.73828 9.77734 6.88477 9.07422C7.08984 8.19531 7.5 7.25781 7.5 6.64258C7.5 6.08594 7.20703 5.61719 6.5918 5.61719C5.85938 5.61719 5.27344 6.37891 5.27344 7.375C5.27344 8.01953 5.47852 8.45898 5.47852 8.45898C5.47852 8.45898 4.77539 11.5059 4.62891 12.0625C4.48242 12.707 4.54102 13.5859 4.59961 14.1426C1.9043 13.0879 0 10.4805 0 7.375C0 3.36133 3.25195 0.109375 7.26562 0.109375C11.2793 0.109375 14.5312 3.36133 14.5312 7.375Z" fill="#191919"/>
</svg>
