<svg width="14" height="14" viewBox="0 0 14 14" fill="none" xmlns="http://www.w3.org/2000/svg">
<path d="M0 1.75C0 1.28587 0.184374 0.840752 0.512563 0.512563C0.840752 0.184374 1.28587 0 1.75 0H10.5C10.9641 0 11.4092 0.184374 11.7374 0.512563C12.0656 0.840752 12.25 1.28587 12.25 1.75V10.5C12.25 10.9641 12.0656 11.4092 11.7374 11.7374C11.4092 12.0656 10.9641 12.25 10.5 12.25H1.75C1.28587 12.25 0.840752 12.0656 0.512563 11.7374C0.184374 11.4092 0 10.9641 0 10.5V1.75ZM9.03875 4.046C8.9955 4.0081 8.94521 3.9791 8.89075 3.96066C8.83629 3.94221 8.77872 3.93469 8.72135 3.93851C8.66398 3.94233 8.60792 3.95742 8.55638 3.98292C8.50484 4.00842 8.45884 4.04383 8.421 4.08712L5.6665 7.2345L4.24725 5.81525C4.20657 5.77457 4.15828 5.74231 4.10514 5.72029C4.05199 5.69828 3.99503 5.68695 3.9375 5.68695C3.87997 5.68695 3.82301 5.69828 3.76986 5.72029C3.71672 5.74231 3.66843 5.77457 3.62775 5.81525C3.58707 5.85593 3.55481 5.90422 3.53279 5.95736C3.51078 6.01051 3.49945 6.06747 3.49945 6.125C3.49945 6.18253 3.51078 6.23949 3.53279 6.29264C3.55481 6.34578 3.58707 6.39407 3.62775 6.43475L5.37775 8.18475C5.42015 8.22709 5.4708 8.26028 5.52656 8.28224C5.58231 8.3042 5.64198 8.31447 5.70187 8.31242C5.76176 8.31037 5.82059 8.29604 5.87471 8.27031C5.92883 8.24459 5.97709 8.20802 6.0165 8.16288L9.079 4.66288C9.15526 4.57558 9.19377 4.46159 9.18606 4.34593C9.17835 4.23027 9.12593 4.1224 9.03875 4.046ZM1.98363 13.125C2.13729 13.3912 2.35834 13.6122 2.62453 13.7658C2.89072 13.9194 3.19267 14.0001 3.5 14H10.5C11.4283 14 12.3185 13.6313 12.9749 12.9749C13.6313 12.3185 14 11.4283 14 10.5V3.5C14 3.19282 13.9191 2.89105 13.7655 2.62503C13.6119 2.359 13.391 2.13809 13.125 1.9845V10.5C13.125 11.1962 12.8484 11.8639 12.3562 12.3562C11.8639 12.8484 11.1962 13.125 10.5 13.125H1.98363Z" fill="#BB0B0B"/>
</svg>
