<svg width="12" height="12" viewBox="0 0 12 12" fill="none" xmlns="http://www.w3.org/2000/svg">
<path d="M5.04105 0.850199L5.60644 0.284816C5.86343 0.0535234 6.24892 0.0535234 6.48021 0.284816L11.4916 5.27046C11.7229 5.52746 11.7229 5.91295 11.4916 6.14424L6.48021 11.1556C6.24892 11.3869 5.86343 11.3869 5.60644 11.1556L5.04105 10.5902C4.80976 10.3332 4.80976 9.94772 5.04105 9.69073L8.15066 6.73532H0.774984C0.415195 6.73532 0.158203 6.47833 0.158203 6.11854V5.29616C0.158203 4.96207 0.415195 4.67938 0.774984 4.67938H8.15066L5.04105 1.74967C4.80976 1.49268 4.78406 1.10719 5.04105 0.850199Z" fill="white"/>
</svg>
