<svg width="14" height="14" viewBox="0 0 14 14" fill="none" xmlns="http://www.w3.org/2000/svg">
<path d="M11.7188 0.8125C12.4805 0.8125 13.125 1.45703 13.125 2.21875V12.5312C13.125 13.3223 12.4805 13.9375 11.7188 13.9375H1.40625C0.615234 13.9375 0 13.3223 0 12.5312V2.21875C0 1.45703 0.615234 0.8125 1.40625 0.8125H11.7188ZM10.2832 5.4707C10.6348 5.20703 10.9863 4.85547 11.25 4.47461C10.8984 4.62109 10.5176 4.73828 10.1367 4.76758C10.5176 4.5332 10.8398 4.18164 10.9863 3.71289C10.6055 3.94727 10.1953 4.09375 9.75586 4.18164C9.4043 3.80078 8.90625 3.56641 8.34961 3.56641C7.17773 3.56641 6.21094 4.65039 6.47461 5.93945C4.89258 5.85156 3.45703 5.08984 2.51953 3.91797C2.34375 4.21094 2.25586 4.5332 2.25586 4.91406C2.25586 5.55859 2.57812 6.14453 3.10547 6.49609C2.7832 6.49609 2.49023 6.4082 2.25586 6.26172V6.29102C2.25586 7.22852 2.90039 7.99023 3.7793 8.16602C3.48633 8.25391 3.22266 8.25391 2.90039 8.19531C3.16406 8.95703 3.86719 9.51367 4.7168 9.54297C4.04297 10.041 3.22266 10.3633 2.31445 10.3633C2.16797 10.3633 2.02148 10.3633 1.875 10.334C2.72461 10.8906 3.7207 11.1836 4.80469 11.1836C8.34961 11.1836 10.2832 8.25391 10.2832 5.73438C10.2832 5.64648 10.2832 5.55859 10.2832 5.4707Z" fill="#191919"/>
</svg>
